<svg xmlns="http://www.w3.org/2000/svg" viewBox="0 0 1440 120" preserveAspectRatio="none">
  <path fill="currentColor" d="M0,120V35.6c24.9-3.2,48.7-8.4,69.5-16.8c12.3-5,24.3-10.7,36.5-16c19.1-8.3,42.1-4.7,60.8,3.9c13.6,6.3,25.6,15.7,39.3,21.1c16.3,6.4,34.4,5.4,51.8,2.7c26.1-4.1,52.3-11.2,78.2-14.8c34.8-4.9,70.5-0.3,105.1,6.5c19.6,3.8,38.9,8.5,58.8,11.2c28.3,3.9,57.1,0.5,85.2-4.9c25.4-4.8,50.4-11.6,76.2-12.7c28.6-1.2,57.2,4.8,84.9,11.7c25.5,6.4,50.7,13.6,76.8,15.8c34.4,3,69.3-3.7,103.2-10.9c23.5-5,46.7-11.1,70.6-13.6c29.1-3,58.3,1.3,86.9,8.1c25.7,6.1,51,13.2,77.3,14.7c21,1.2,41.9-2.3,62.5-7.7c15.9-4.2,31.4-10.3,47.6-13.8c25.7-5.5,52.4-5.6,78.4-2.8c18.5,2,36.8,5.7,55,9.6c13,2.8,25.9,5.7,38.9,8.8c0.1,0,0.1,0,0.2,0V120H0z"/>
</svg>
